<?xml version="1.0" encoding="UTF-8" standalone="no"?>
<!-- Created with Inkscape (http://www.inkscape.org/) -->

<svg
   xmlns:dc="http://purl.org/dc/elements/1.1/"
   xmlns:cc="http://creativecommons.org/ns#"
   xmlns:rdf="http://www.w3.org/1999/02/22-rdf-syntax-ns#"
   xmlns:svg="http://www.w3.org/2000/svg"
   xmlns="http://www.w3.org/2000/svg"
   xmlns:sodipodi="http://sodipodi.sourceforge.net/DTD/sodipodi-0.dtd"
   xmlns:inkscape="http://www.inkscape.org/namespaces/inkscape"
   width="500"
   height="500"
   viewBox="0 0 132.29166 132.29167"
   version="1.1"
   id="svg8"
   inkscape:version="0.92.3 (2405546, 2018-03-11)"
   sodipodi:docname="Logo.svg"
   inkscape:export-filename="/home/milad/projects/files/PassMan/favicon.png"
   inkscape:export-xdpi="3.0699999"
   inkscape:export-ydpi="3.0699999">
  <defs
     id="defs2" />
  <sodipodi:namedview
     id="base"
     pagecolor="#999999"
     bordercolor="#666666"
     borderopacity="1.0"
     inkscape:pageopacity="0"
     inkscape:pageshadow="2"
     inkscape:zoom="1.4"
     inkscape:cx="212.46985"
     inkscape:cy="256.75871"
     inkscape:document-units="mm"
     inkscape:current-layer="layer1"
     showgrid="true"
     units="px"
     showguides="true"
     inkscape:guide-bbox="true"
     inkscape:lockguides="false"
     inkscape:window-width="1920"
     inkscape:window-height="954"
     inkscape:window-x="0"
     inkscape:window-y="27"
     inkscape:window-maximized="1"
     inkscape:snap-global="false">
    <inkscape:grid
       type="xygrid"
       id="grid3715"
       spacingx="6.6145832"
       spacingy="6.6145832" />
    <sodipodi:guide
       position="106.77417,110.24868"
       orientation="0,1"
       id="guide826"
       inkscape:locked="false" />
  </sodipodi:namedview>
  <metadata
     id="metadata5">
    <rdf:RDF>
      <cc:Work
         rdf:about="">
        <dc:format>image/svg+xml</dc:format>
        <dc:type
           rdf:resource="http://purl.org/dc/dcmitype/StillImage" />
        <dc:title />
      </cc:Work>
    </rdf:RDF>
  </metadata>
  <g
     inkscape:label="Layer 1"
     inkscape:groupmode="layer"
     id="layer1"
     transform="translate(0,-164.70832)">
    <path
       style="fill:#808080;fill-opacity:1;stroke:none;stroke-width:0.29626587px;stroke-linecap:butt;stroke-linejoin:miter;stroke-opacity:1"
       d="m 66.311726,168.48809 c 1.771984,-0.0116 3.275519,1.0251 4.896389,2.07022 21.768808,14.03639 42.876825,12.88632 54.449585,8.3824 3.28017,-1.27657 3.59353,-2.29173 5.09576,-1.37586 1.3269,0.80898 1.42766,2.09302 0.98133,4.55777 -13.61528,75.18986 -49.663068,100.33687 -60.386659,108.49315 -2.054237,1.56243 -3.149206,2.44397 -5.009952,2.46269 -1.944803,0.0197 -3.470473,-1.09518 -5.287043,-2.46799 -10.464858,-7.90846 -46.44527,-32.79272 -60.13671697,-108.63798 -0.43627478,-2.41679 -0.4781312,-3.70991 0.82142987,-4.51987 1.5817917,-0.98586 2.0520038,0.24182 5.379457,1.52556 11.5475041,4.45501 32.4781561,5.56873 54.0952811,-8.25443 1.706345,-1.09111 3.244663,-2.22356 5.101139,-2.23566 z"
       id="path3717"
       inkscape:connector-curvature="0"
       sodipodi:nodetypes="assassassassa"
       inkscape:label="ShieldStroke" />
    <path
       sodipodi:nodetypes="assassassassa"
       inkscape:connector-curvature="0"
       id="path824"
       d="m 66.311019,177.37052 c 1.519324,-0.01 2.742301,0.99101 4.198233,1.77503 19.867596,10.69865 39.045728,12.0965 48.968368,8.23478 2.81247,-1.09455 3.67747,-1.60567 4.90372,-0.5115 1.00525,0.89695 0.53355,1.95141 0.0396,4.04152 -15.01481,63.53341 -44.597078,84.18085 -53.791636,91.17416 -1.761332,1.33965 -2.700174,2.0955 -4.295604,2.11155 -1.667501,0.0169 -2.975632,-0.93903 -4.533185,-2.11609 -8.972717,-6.78083 -38.06946,-28.26669 -53.149569,-91.56024 -0.4880322,-2.04835 -0.4099552,-3.18093 0.704306,-3.8754 1.356252,-0.84529 1.709998,0.34517 4.612422,1.30804 9.500089,3.15162 29.033825,1.18269 47.969556,-8.66497 1.540689,-0.80125 2.78202,-1.90651 4.373789,-1.91688 z"
       style="fill:#008a51;fill-opacity:1;stroke:none;stroke-width:0.25402254px;stroke-linecap:butt;stroke-linejoin:miter;stroke-opacity:1"
       inkscape:label="Shield" />
    <path
       id="path4626"
       d="m 71.235374,268.15889 c 0,-0.027 0,-0.0405 0,-0.0675 v 0 -1.20161 0 -39.03246 c 8.681381,-2.21423 15.108035,-10.09903 15.108035,-19.48248 0,-11.09812 -9.005418,-20.10354 -20.10354,-20.10354 -11.09813,0 -20.10354,9.00542 -20.10354,20.10354 0,9.35645 6.386152,17.21425 15.040527,19.45547 v 22.81732 H 51.26685 v 14.97301 h 9.923509 v 2.0387 0 0.43205 0 c 0,0.027 0,0.0405 0,0.0675 0,2.78128 2.254727,5.02252 5.022504,5.02252 2.767784,0 5.022511,-2.24124 5.022511,-5.02252 z M 56.194847,208.37483 c 0,-5.54906 4.495958,-10.04502 10.045022,-10.04502 5.549058,0 10.045022,4.49596 10.045022,10.04502 0,5.54907 -4.495964,10.04502 -10.045022,10.04502 -5.549064,0 -10.045022,-4.49595 -10.045022,-10.04502 z"
       class="st2"
       inkscape:connector-curvature="0"
       style="fill:#ffb511;stroke-width:0.13501368"
       inkscape:label="Key" />
    <path
       sodipodi:nodetypes="cssasscc"
       inkscape:connector-curvature="0"
       id="path828"
       d="m 66.311726,168.48809 c 1.771984,-0.0116 3.275519,1.0251 4.896389,2.07022 21.768808,14.03639 42.876825,12.88632 54.449585,8.3824 3.28017,-1.27657 3.59353,-2.29173 5.09576,-1.37586 1.3269,0.80898 1.42766,2.09302 0.98133,4.55777 -13.61528,75.18986 -49.663068,100.33687 -60.386659,108.49315 -2.054237,1.56243 -3.149206,2.44397 -5.009952,2.46269 -0.192347,-35.76597 -0.192347,-82.06805 -0.02645,-124.59037 z"
       style="fill:#000000;fill-opacity:0.15654949;stroke:none;stroke-width:0.29626587px;stroke-linecap:butt;stroke-linejoin:miter;stroke-opacity:1"
       inkscape:label="Half" />
  </g>
  <style
     id="style4620"
     type="text/css">
	.st0{fill:none;}
	.st1{fill:#6BA5B4;}
	.st2{fill:#FFB511;}
</style>
</svg>
